<svg width="22" height="20" viewBox="0 0 22 20" fill="none" xmlns="http://www.w3.org/2000/svg">
<path d="M11.6445 19.4889C11.5823 19.5711 11.5049 19.6371 11.4175 19.6825C11.3301 19.7278 11.2349 19.7512 11.1386 19.7512C11.0422 19.7512 10.9471 19.7278 10.8597 19.6825C10.7723 19.6371 10.6948 19.5711 10.6327 19.4889C8.5665 16.7488 6.69648 14.7896 5.15683 13.1775C2.49182 10.3841 0.814087 8.62796 0.814087 5.64729C0.814087 2.52832 3.1242 0 5.97634 0C8.04124 0 9.48538 1.51267 10.3694 2.8928C10.705 3.41863 10.9605 3.92429 11.1386 4.32191C11.3619 3.82427 11.619 3.3465 11.9078 2.8928C12.7918 1.51123 14.2359 0 16.3008 0C19.153 0 21.4631 2.52832 21.4631 5.64729C21.4631 8.62796 19.7854 10.3841 17.1204 13.1775C15.5807 14.791 13.7107 16.7503 11.6445 19.4875V19.4889Z" fill="#002140"/>
</svg>
