<svg width="10" height="12" viewBox="0 0 10 12" fill="none" xmlns="http://www.w3.org/2000/svg">
<path d="M6.24983 5.99919V11.2518C6.27482 11.4518 6.21233 11.6651 6.0686 11.8051C6.01079 11.8669 5.94212 11.9159 5.86652 11.9493C5.79092 11.9828 5.70988 12 5.62804 12C5.54619 12 5.46515 11.9828 5.38956 11.9493C5.31396 11.9159 5.24529 11.8669 5.18747 11.8051L3.9314 10.4652C3.86324 10.3942 3.81142 10.3073 3.77998 10.2113C3.74854 10.1153 3.73834 10.0129 3.75017 9.91199V5.99919H3.73143L0.131924 1.07985C0.0304432 0.940892 -0.015347 0.764735 0.00455909 0.589873C0.0244652 0.415012 0.108449 0.255663 0.238159 0.146647C0.356893 0.0533261 0.488125 0 0.625606 0H9.37439C9.51188 0 9.64311 0.0533261 9.76184 0.146647C9.89155 0.255663 9.97553 0.415012 9.99544 0.589873C10.0153 0.764735 9.96956 0.940892 9.86808 1.07985L6.26857 5.99919H6.24983Z" fill="#111111"/>
</svg>
