<svg width="23" height="25" viewBox="0 0 23 25" fill="none" xmlns="http://www.w3.org/2000/svg">
<path d="M22.7961 10.2474C22.9329 11.0863 23.0011 11.9364 23 12.7879C23 16.5909 21.7242 19.8064 19.5039 21.9829H19.5069C17.5653 23.8938 14.8963 25 11.7317 25C8.62026 25 5.63625 23.6831 3.43613 21.339C1.23601 18.9948 0 15.8155 0 12.5004C0 9.18532 1.23601 6.006 3.43613 3.66187C5.63625 1.31774 8.62026 0.000824796 11.7317 0.000824796C14.644 -0.0355152 17.4565 1.13021 19.5802 3.25384L16.2308 6.82247C15.0201 5.59279 13.4042 4.9194 11.7317 4.94754C8.67119 4.94754 6.07115 7.14746 5.14435 10.1099C4.65295 11.6622 4.65295 13.3433 5.14435 14.8956H5.14875C6.07995 17.8534 8.67559 20.0533 11.7361 20.0533C13.3169 20.0533 14.6749 19.6221 15.7278 18.8596H15.7234C16.3348 18.428 16.8578 17.869 17.2608 17.2162C17.6638 16.5634 17.9385 15.8303 18.0683 15.0613H11.7317V10.2489L22.7961 10.2474Z" fill="#111111"/>
</svg>
