<svg width="22" height="20" viewBox="0 0 22 20" fill="none" xmlns="http://www.w3.org/2000/svg">
<path d="M2.49709 9.68688H1.56128L10.7052 0.667162C10.813 0.560899 10.9605 0.5 11.1158 0.5C11.2711 0.5 11.4187 0.560899 11.5264 0.667162L20.6703 9.68688H19.7345H19.2345V10.1869V18.6885C19.2345 18.8355 19.1754 18.9779 19.0679 19.084L19.419 19.44L19.0678 19.084C18.9601 19.1903 18.8125 19.2512 18.6572 19.2512H13.7705V12.3123V11.8123H13.2705H8.96113H8.46113V12.3123V19.2512H3.57443C3.41912 19.2512 3.27152 19.1903 3.16376 19.084L2.81263 19.44L3.16376 19.084C3.05623 18.9779 2.99709 18.8355 2.99709 18.6885V10.1869V9.68688H2.49709Z" stroke="black"/>
</svg>
