<svg id="Layer_1" data-name="Layer 1" xmlns="http://www.w3.org/2000/svg" viewBox="0 0 1080 1080"><defs><style>.cls-1,.cls-6{fill:#231f20;}.cls-1,.cls-2,.cls-3{fill-rule:evenodd;}.cls-2,.cls-4{fill:#fff;}.cls-3,.cls-5{fill:#f26b21;}.cls-7{fill:none;stroke:#343a39;stroke-miterlimit:22.93;stroke-width:0.75px;}</style></defs><path class="cls-1" d="M992.5,487h5.19q3.72,0,5.07-1.1a3.61,3.61,0,0,0,1.36-2.92,3.55,3.55,0,0,0-.65-2.09,3.82,3.82,0,0,0-1.81-1.38,13.6,13.6,0,0,0-4.3-.46H992.5Zm-4.27,14.89V475.43h9.1a22.26,22.26,0,0,1,6.76.73,6.59,6.59,0,0,1,3.34,2.56,6.78,6.78,0,0,1,1.23,3.87,7,7,0,0,1-2.08,5.05,8.25,8.25,0,0,1-5.51,2.41,7.16,7.16,0,0,1,2.25,1.4,30,30,0,0,1,3.92,5.25l3.23,5.17h-5.19l-2.36-4.16q-2.77-4.92-4.49-6.17a5.44,5.44,0,0,0-3.41-.89H992.5v11.22ZM999,467.74a21.09,21.09,0,0,0-10.1,2.66,19,19,0,0,0-7.68,7.61,20.41,20.41,0,0,0,0,20.48,19.34,19.34,0,0,0,7.62,7.6,20.46,20.46,0,0,0,20.42,0,19.16,19.16,0,0,0,7.6-7.6,20.54,20.54,0,0,0-.05-20.48,18.94,18.94,0,0,0-7.68-7.61A21.17,21.17,0,0,0,999,467.74Zm0-4.07a25.24,25.24,0,0,1,12.1,3.18,22.64,22.64,0,0,1,9.2,9.1,25.14,25.14,0,0,1,3.29,12.34,24.84,24.84,0,0,1-3.25,12.23,22.73,22.73,0,0,1-9.09,9.12,24.71,24.71,0,0,1-24.5,0,22.87,22.87,0,0,1-9.12-9.12,24.61,24.61,0,0,1,.05-24.57,22.85,22.85,0,0,1,9.21-9.1A25.25,25.25,0,0,1,999,463.67Z"/><path class="cls-2" d="M540,223.18c82.1,0,148.65,65.51,148.65,146.32S622.1,515.81,540,515.81,391.35,450.31,391.35,369.5,457.9,223.18,540,223.18"/><path class="cls-3" d="M540,238.86c73.3,0,132.71,58.49,132.71,130.64S613.3,500.13,540,500.13,407.28,441.65,407.28,369.5,466.7,238.86,540,238.86"/><path class="cls-2" d="M560.78,312.72c51,0,92.25,40.65,92.25,90.8s-41.3,90.81-92.25,90.81-92.25-40.66-92.25-90.81,41.3-90.8,92.25-90.8"/><path class="cls-1" d="M560.78,344.82c32.94,0,59.64,26.28,59.64,58.7s-26.7,58.7-59.64,58.7-59.64-26.28-59.64-58.7,26.7-58.7,59.64-58.7"/><path class="cls-4" d="M524.14,437.55v-2.86a5.29,5.29,0,0,0,3.92-2.31q1.05-1.81,1.05-8.2V382.84c0-4.23-.35-7-1.05-8.18a5.26,5.26,0,0,0-3.92-2.31v-2.86h48.61q7.65,0,11.33,2.67c2.47,1.77,3.7,4.53,3.7,8.23a13.93,13.93,0,0,1-3.14,8.85c-2.09,2.63-5.7,5.46-10.87,8.48a65,65,0,0,1,8,11,130,130,0,0,1,7.68,15.95l.2.49c2.45,5.95,5.06,9.13,7.79,9.52v2.86H565.17v-2.86a7.9,7.9,0,0,0,2.78-1.78,3.67,3.67,0,0,0,.76-2.4c0-2.76-1.37-6.68-4.08-11.77a57.85,57.85,0,0,0-10.24-13.82l-3.92,1.2v18.06c0,4.26.34,7,1,8.2a5.27,5.27,0,0,0,3.92,2.31v2.86Zm26.33-39.18c5.15-1.12,9.13-3,11.95-5.53a11.88,11.88,0,0,0,4.21-9.14q0-3.88-2.17-5.68c-1.45-1.19-3.71-1.79-6.82-1.79q-4.15,0-5.65.92c-1,.61-1.52,2.17-1.52,4.71Z"/><path class="cls-5" d="M884.65,659.84v-5.48c3.68-.66,6.16-2.12,7.52-4.44s2-7.56,2-15.68V554.89c0-8.12-.66-13.33-2-15.65s-3.84-3.81-7.52-4.43v-5.48H976a22.77,22.77,0,0,0,7-1,9.09,9.09,0,0,0,4.38-3l11.13,45-5.21.78q-5.91-14.13-17.16-21.36t-27.26-7.21c-5.31,0-8.95,1-10.87,2.91s-2.92,6.09-2.92,12.52v13.53h11.14c7,0,11.65-1,14-3.13s3.94-6.06,4.64-11.94h4l8.54,49.93-4,.95c-2.65-8.35-6.06-14.15-10.28-17.42s-10.17-4.89-17.92-4.89H935.14v43c0,7.46,1.23,12.42,3.65,14.9s7,3.72,13.71,3.72a46.14,46.14,0,0,0,28.73-9.56q12.53-9.54,22.49-29.38l5.17.94L992,662a13.29,13.29,0,0,0-4-1.63,29.06,29.06,0,0,0-6.46-.52ZM750,555q0-12.24-2-15.72c-1.36-2.32-3.85-3.81-7.53-4.43v-5.48H815v5.48a8.5,8.5,0,0,0-3.41,2.34,4.5,4.5,0,0,0-1.16,3,7.63,7.63,0,0,0,1,3.2,16.85,16.85,0,0,0,2.58,3.59l25.65,28V555q0-12.24-2-15.72c-1.33-2.32-3.84-3.81-7.52-4.43v-5.48h36.15v5.48c-3.68.62-6.17,2.11-7.52,4.43s-2,7.56-2,15.72V634.2c0,8.16.67,13.41,2,15.72s3.84,3.78,7.52,4.44v5.48h-39v-5.48c4.74-.2,8-1.31,9.71-3.29s2.62-6.2,2.62-12.56V634l-72.76-80.19v77.81q0,13.74,2.69,18c1.75,2.8,5,4.37,9.84,4.76v5.48h-39v-5.48c3.68-.66,6.17-2.12,7.53-4.44s2-7.56,2-15.72ZM662.17,659.84v-5.48c3.68-.66,6.17-2.12,7.52-4.44s2-7.56,2-15.72V555c0-8.16-.66-13.4-2-15.72s-3.84-3.81-7.52-4.43v-5.48h60v5.48c-3.68.62-6.16,2.11-7.52,4.43s-2,7.56-2,15.72V634.2c0,8.16.67,13.41,2,15.72s3.84,3.78,7.52,4.44v5.48Zm-127.06,0v-5.48c3.68-.66,6.17-2.12,7.52-4.44s2-7.56,2-15.72V555c0-8.16-.66-13.4-2-15.72s-3.84-3.81-7.52-4.43v-5.48h61v5.48c-4,.81-6.76,2.47-8.25,4.92s-2.28,7.53-2.28,15.23v69.62c0,9.66,1.16,15.79,3.47,18.33s6.5,3.82,12.43,3.82c9.31,0,17.69-3.3,25.08-9.89S640.47,620.38,646,607.2l4.57,1.53L635.47,662a10.28,10.28,0,0,0-3.51-1.7,26.3,26.3,0,0,0-5.64-.45Zm-196.23-17,20.34-38.54,5.1,1.82a45.84,45.84,0,0,0-1.66,7,43,43,0,0,0-.52,6.81q0,12.52,6,20a19,19,0,0,0,15.5,7.43c6.33,0,11-1.89,13.95-5.67s4.47-9.72,4.47-17.81V555c0-8.09-.86-13.34-2.62-15.75s-5-3.88-9.9-4.4v-5.48h63.21v5.48c-3.71.65-6.22,2.11-7.55,4.43s-2,7.56-2,15.72v64.37c0,8.87-.83,15.33-2.52,19.44a29.65,29.65,0,0,1-8.65,11.31c-4.77,4-11,7.08-18.68,9.27a96,96,0,0,1-25.88,3.23c-10.4,0-19.51-1.57-27.26-4.73A59.94,59.94,0,0,1,338.88,642.81Zm-91.21-95.87a19.92,19.92,0,0,0,.86-2.87,14,14,0,0,0,.3-2.77,5.68,5.68,0,0,0-1.26-3.72,11.16,11.16,0,0,0-4.08-2.77v-5.48h60.44v5.48a10,10,0,0,0-4,2.54,4.92,4.92,0,0,0-1.43,3.39,13.53,13.53,0,0,0,.24,2.48,32.47,32.47,0,0,0,1,3.81L330,634.79c2.82,8.22,5.34,13.47,7.46,15.78a11.54,11.54,0,0,0,8.25,3.79v5.48H277.85v-5.48q5.41-1,7.78-3.52c1.6-1.73,2.39-4.21,2.39-7.47q0-12.68-13-22.24t-33-10.8l-7.79,21.5a77.93,77.93,0,0,0-2.22,7.59,27.07,27.07,0,0,0-.76,5.68c0,3.06.86,5.35,2.61,6.91s4.35,2.35,7.76,2.35v5.48h-45v-5.48a19.71,19.71,0,0,0,11-5.78q4.17-4.44,9.5-18.68Zm-.4,49.11a78.5,78.5,0,0,1,15.44,3.23,56,56,0,0,1,13,6.19l-14.55-47ZM71.11,659.84v-5.48c3.68-.66,6.16-2.12,7.52-4.44s2-7.56,2-15.72V554.92c0-8.12-.66-13.36-2-15.68s-3.84-3.81-7.52-4.43v-5.48h93.23c9.77,0,17,1.69,21.74,5.12s7.08,8.67,7.08,15.78a26.72,26.72,0,0,1-6,17q-6,7.57-20.84,16.27a125.28,125.28,0,0,1,15.3,21.1,248.67,248.67,0,0,1,14.71,30.59l.4,1c4.71,11.41,9.71,17.51,14.94,18.26v5.48H149.8v-5.48a15.05,15.05,0,0,0,5.33-3.43,7,7,0,0,0,1.46-4.59q0-7.94-7.82-22.57a111.11,111.11,0,0,0-19.65-26.52l-7.52,2.32V634.2c0,8.16.66,13.41,2,15.72s3.84,3.78,7.52,4.44v5.48ZM121.6,584.7q14.82-3.23,22.93-10.6t8.09-17.54c0-5-1.4-8.58-4.18-10.9s-7.12-3.42-13.09-3.42q-7.95,0-10.83,1.76c-2,1.18-2.92,4.17-2.92,9Z"/><path class="cls-6" d="M988,765.56h5.25V742.69c0-8.8-3.69-15.2-16-15.2-8.17,0-13.71,4.48-15.27,8.39h-.14v-7.25h-5.26v36.93h5.26v-20c0-8.38,4.69-13.63,15-13.63,6.67,0,11.15,2.55,11.15,9.87ZM902.74,747.1c0,10.29,6.74,19.6,21,19.6s20.95-9.31,20.95-19.6-6.75-19.61-20.95-19.61S902.74,736.8,902.74,747.1Zm5.25,0c0-8.88,5.75-15.2,15.7-15.2s15.69,6.32,15.69,15.2-5.75,15.19-15.69,15.19S908,756,908,747.1Zm-22.36-24.86h5.26v-7.81h-5.26Zm0,43.32h5.26V728.63h-5.26Zm-26.47-36.93h-8v4h8V757c0,6,1.78,9.16,9.94,9.16a41.43,41.43,0,0,0,5.76-.43v-4.4a25.5,25.5,0,0,1-5.19.43c-4.26,0-5.25-1.5-5.25-4.69V732.61h10.44v-4H864.42V717h-5.26ZM811.59,740c.36-5.89,4.34-8.09,12.64-8.09,8.67,0,12.22,1.92,12.22,7.24,0,3.63-1.42,4.26-12.93,4.9-8.09.43-18.39,1.56-18.39,11.58,0,8.31,8,11.08,14.35,11.08,12.07,0,15.62-5,17.25-7.39h.15c.07,2.91.35,6.54,5.68,6.54a22.51,22.51,0,0,0,4.4-.57v-3.55c-.92.07-1.85.14-2.77.14-2.06,0-2.91-1.07-2.91-4.12V738.43c0-7.1-4.55-10.94-16.9-10.94-12.65,0-16.84,4.76-17.62,12.5Zm24.86,11.3c0,7.59-8.31,11.43-15.41,11.43-5.68,0-10.65-1.7-10.65-7.46,0-4.4,3.55-6.25,9.65-6.82,10.52-1,14.07-1.27,16.41-2.77Zm-58.36,8.23L763.6,728.63h-5.68l17.33,36.93h5.68l17.33-36.93h-5.68ZM708.5,747.1c0,10.29,6.75,19.6,21,19.6s20.95-9.31,20.95-19.6-6.75-19.61-20.95-19.61S708.5,736.8,708.5,747.1Zm5.26,0c0-8.88,5.75-15.2,15.7-15.2s15.69,6.32,15.69,15.2-5.75,15.19-15.69,15.19S713.76,756,713.76,747.1Zm-22.5,18.46h5.25V742.69c0-8.8-3.69-15.2-16-15.2-8.17,0-13.71,4.48-15.27,8.39h-.14v-7.25h-5.26v36.93h5.26v-20c0-8.38,4.68-13.63,15-13.63,6.68,0,11.15,2.55,11.15,9.87Zm-49.91,0h5.25V742.69c0-8.8-3.69-15.2-16-15.2-8.16,0-13.7,4.48-15.27,8.39h-.14v-7.25H610v36.93h5.25v-20c0-8.38,4.69-13.63,15-13.63,6.67,0,11.15,2.55,11.15,9.87Zm-49.77-43.32h5.25v-7.81h-5.25Zm0,43.32h5.25V728.63h-5.25Zm-51.05,0h5.25V746.74c0-10.51,6.89-14,12.57-14a27.3,27.3,0,0,1,4.84.43v-5.4a15.76,15.76,0,0,0-3.13-.29c-8.74,0-12.22,5.19-14.13,9.59h-.15v-8.45h-5.25Zm-18.52,0h5.25V728.63H522v20c0,8.38-4.69,13.63-15,13.63-6.67,0-11.15-2.55-11.15-9.87V728.63h-5.25V751.5c0,8.81,3.69,15.2,16,15.2,8.16,0,13.7-4.48,15.26-8.38H522ZM436.73,747.1c0,10.29,6.75,19.6,20.95,19.6s20.95-9.31,20.95-19.6-6.75-19.61-20.95-19.61S436.73,736.8,436.73,747.1Zm5.25,0c0-8.88,5.76-15.2,15.7-15.2s15.69,6.32,15.69,15.2-5.75,15.19-15.69,15.19S442,756,442,747.1Zm-32.37,12.28-15.05-30.75h-5.68l18,37.22L404.43,771c-1.7,3.69-3.55,4.54-7.32,4.54-1.42,0-2.62-.07-3.76-.14v4.4c1.56.15,3.41.15,5,.15,5.83,0,8.1-1.64,10.8-7.46l20-43.82h-5.68Zm-54.52,6.18h5.25V714.43h-5.25V736h-.15c-2.41-4.69-8-8.53-15.05-8.53-13.78,0-20.1,9.31-20.1,19.61,0,9,5,19.6,20.1,19.6,8.95,0,13.63-5.4,15.05-8.52h.15Zm.28-18.46c0,9.66-6.75,15.19-15.48,15.19-10.73,0-14.85-7.81-14.85-15.19,0-9.38,6.54-15.2,14.85-15.2C350.61,731.9,355.37,739.5,355.37,747.1Zm-52.82,18.46h5.25V742.69c0-8.8-3.69-15.2-16-15.2-8.16,0-13.71,4.48-15.27,8.39h-.14v-7.25h-5.26v36.93h5.26v-20c0-8.38,4.69-13.63,15-13.63,6.67,0,11.15,2.55,11.15,9.87ZM227.14,740c.35-5.89,4.33-8.09,12.64-8.09,8.66,0,12.21,1.92,12.21,7.24,0,3.63-1.42,4.26-12.92,4.9-8.09.43-18.39,1.56-18.39,11.58,0,8.31,8,11.08,14.34,11.08,12.08,0,15.63-5,17.26-7.39h.14c.07,2.91.36,6.54,5.68,6.54a22.3,22.3,0,0,0,4.4-.57v-3.55c-.92.07-1.84.14-2.76.14-2.06,0-2.92-1.07-2.92-4.12V738.43c0-7.1-4.54-10.94-16.9-10.94-12.64,0-16.83,4.76-17.61,12.5ZM252,751.29c0,7.59-8.3,11.43-15.41,11.43-5.68,0-10.65-1.7-10.65-7.46,0-4.4,3.55-6.25,9.66-6.82,10.51-1,14.06-1.27,16.4-2.77Zm-77-4.19c0-9.66,6.74-15.2,15.48-15.2,10.72,0,14.84,7.81,14.84,15.2,0,9.37-6.53,15.19-14.84,15.19C179.79,762.29,175,754.7,175,747.1Zm-5,32.81h5.26V758.18h.14c2.42,4.68,8.1,8.52,15.06,8.52,13.78,0,20.1-9.31,20.1-19.6,0-9-5-19.61-20.1-19.61-10.23,0-13.64,5.4-15.06,8.53h-.14v-7.39h-5.26Zm-50.19-14.35h6.89l13.64-15.34,13.7,15.34h7l-17.33-19.17,16-17.76h-6.89l-12.42,14.06-12.5-14.06h-6.82l15.76,17.76Zm-13.48-11.79c-1.84,5.61-5.82,8.52-14.63,8.52-9.37,0-14.84-6.25-14.84-13.92h35.65c0-16.76-11.29-20.88-20.81-20.88-13.78,0-20.1,9.31-20.1,19.61,0,9,5,19.6,20.1,19.6,12.22,0,17.76-6.39,19.89-12.93ZM76.91,744.4c1.21-9,8.45-12.5,15.2-12.5,7,0,13.7,3.41,15.2,12.5Z"/><line class="cls-7" x1="71.11" y1="689.75" x2="991.99" y2="689.75"/></svg>