<svg width="1080" height="1080" viewBox="0 0 1080 1080" fill="none" xmlns="http://www.w3.org/2000/svg">
<path fill-rule="evenodd" clip-rule="evenodd" d="M992.5 487H997.69C1000.17 487 1001.86 486.633 1002.76 485.9C1003.2 485.552 1003.55 485.107 1003.78 484.6C1004.02 484.093 1004.13 483.539 1004.12 482.98C1004.13 482.232 1003.9 481.501 1003.47 480.89C1003.02 480.257 1002.39 479.775 1001.66 479.51C1000.26 479.128 998.809 478.973 997.36 479.05H992.5V487ZM988.23 501.89V475.43H997.33C999.607 475.326 1001.89 475.572 1004.09 476.16C1005.45 476.625 1006.63 477.524 1007.43 478.72C1008.23 479.854 1008.66 481.205 1008.66 482.59C1008.67 483.528 1008.49 484.459 1008.13 485.326C1007.78 486.194 1007.25 486.981 1006.58 487.64C1005.11 489.108 1003.14 489.968 1001.07 490.05C1001.9 490.372 1002.66 490.847 1003.32 491.45C1004.81 493.052 1006.13 494.812 1007.24 496.7L1010.47 501.87H1005.28L1002.92 497.71C1001.07 494.43 999.577 492.373 998.43 491.54C997.424 490.873 996.224 490.56 995.02 490.65H992.5V501.87L988.23 501.89ZM999 467.74C995.464 467.766 991.99 468.68 988.9 470.4C985.657 472.139 982.989 474.783 981.22 478.01C979.416 481.121 978.465 484.653 978.465 488.25C978.465 491.846 979.416 495.379 981.22 498.49C982.99 501.693 985.632 504.329 988.84 506.09C991.946 507.878 995.466 508.819 999.05 508.819C1002.63 508.819 1006.15 507.878 1009.26 506.09C1012.47 504.334 1015.1 501.696 1016.86 498.49C1018.64 495.37 1019.58 491.837 1019.57 488.243C1019.56 484.649 1018.61 481.121 1016.81 478.01C1015.04 474.781 1012.38 472.136 1009.13 470.4C1006.03 468.679 1002.55 467.764 999 467.74ZM999 463.67C1003.24 463.698 1007.4 464.791 1011.1 466.85C1014.99 468.924 1018.18 472.086 1020.3 475.95C1022.44 479.711 1023.57 483.962 1023.59 488.29C1023.58 492.579 1022.46 496.792 1020.34 500.52C1018.25 504.373 1015.1 507.54 1011.25 509.64C1007.52 511.77 1003.3 512.89 999 512.89C994.704 512.89 990.481 511.77 986.75 509.64C982.898 507.538 979.732 504.372 977.63 500.52C975.485 496.779 974.361 492.54 974.369 488.228C974.378 483.916 975.52 479.682 977.68 475.95C979.808 472.092 983.007 468.932 986.89 466.85C990.596 464.79 994.76 463.696 999 463.67Z" fill="#231F20"/>
<path fill-rule="evenodd" clip-rule="evenodd" d="M540 223.18C622.1 223.18 688.65 288.69 688.65 369.5C688.65 450.31 622.1 515.81 540 515.81C457.9 515.81 391.35 450.31 391.35 369.5C391.35 288.69 457.9 223.18 540 223.18Z" fill="white"/>
<path fill-rule="evenodd" clip-rule="evenodd" d="M540 238.86C613.3 238.86 672.71 297.35 672.71 369.5C672.71 441.65 613.3 500.13 540 500.13C466.7 500.13 407.28 441.65 407.28 369.5C407.28 297.35 466.7 238.86 540 238.86Z" fill="#F26B21"/>
<path fill-rule="evenodd" clip-rule="evenodd" d="M560.78 312.72C611.78 312.72 653.03 353.37 653.03 403.52C653.03 453.67 611.73 494.33 560.78 494.33C509.83 494.33 468.53 453.67 468.53 403.52C468.53 353.37 509.83 312.72 560.78 312.72Z" fill="white"/>
<path fill-rule="evenodd" clip-rule="evenodd" d="M560.78 344.82C593.72 344.82 620.42 371.1 620.42 403.52C620.42 435.94 593.72 462.22 560.78 462.22C527.84 462.22 501.14 435.94 501.14 403.52C501.14 371.1 527.84 344.82 560.78 344.82Z" fill="#231F20"/>
<path d="M524.14 437.55V434.69C524.924 434.621 525.683 434.378 526.361 433.978C527.039 433.578 527.62 433.032 528.06 432.38C528.76 431.173 529.11 428.44 529.11 424.18V382.84C529.11 378.61 528.76 375.84 528.06 374.66C527.621 374.006 527.041 373.459 526.363 373.059C525.684 372.659 524.925 372.417 524.14 372.35V369.49H572.75C577.85 369.49 581.627 370.38 584.08 372.16C586.55 373.93 587.78 376.69 587.78 380.39C587.789 383.615 586.68 386.742 584.64 389.24C582.55 391.87 578.94 394.7 573.77 397.72C576.814 401.097 579.495 404.784 581.77 408.72C584.69 413.856 587.256 419.185 589.45 424.67L589.65 425.16C592.1 431.11 594.71 434.29 597.44 434.68V437.54H565.17V434.68C566.212 434.289 567.159 433.682 567.95 432.9C568.479 432.215 568.748 431.365 568.71 430.5C568.71 427.74 567.34 423.82 564.63 418.73C561.925 413.639 558.473 408.981 554.39 404.91L550.47 406.11V424.17C550.47 428.43 550.81 431.17 551.47 432.37C551.909 433.023 552.49 433.57 553.168 433.97C553.846 434.37 554.606 434.612 555.39 434.68V437.54L524.14 437.55ZM550.47 398.37C555.62 397.25 559.6 395.37 562.42 392.84C563.748 391.717 564.813 390.317 565.541 388.738C566.268 387.158 566.64 385.439 566.63 383.7C566.63 381.113 565.907 379.22 564.46 378.02C563.01 376.83 560.75 376.23 557.64 376.23C554.873 376.23 552.99 376.537 551.99 377.15C550.99 377.76 550.47 379.32 550.47 381.86V398.37Z" fill="white"/>
<path d="M884.65 659.84V654.36C888.33 653.7 890.81 652.24 892.17 649.92C893.53 647.6 894.17 642.36 894.17 634.24V554.89C894.17 546.77 893.51 541.56 892.17 539.24C890.83 536.92 888.33 535.43 884.65 534.81V529.33H976C978.371 529.363 980.733 529.026 983 528.33C984.726 527.788 986.251 526.744 987.38 525.33L998.51 570.33L993.3 571.11C989.36 561.69 983.64 554.57 976.14 549.75C968.64 544.93 959.553 542.527 948.88 542.54C943.57 542.54 939.93 543.54 938.01 545.45C936.09 547.36 935.09 551.54 935.09 557.97V571.5H946.23C953.23 571.5 957.88 570.5 960.23 568.37C962.58 566.24 964.17 562.31 964.87 556.43H968.87L977.41 606.36L973.41 607.31C970.76 598.96 967.35 593.16 963.13 589.89C958.91 586.62 952.96 585 945.21 585H935.14V628C935.14 635.46 936.37 640.42 938.79 642.9C941.21 645.38 945.79 646.62 952.5 646.62C962.88 646.756 973.001 643.388 981.23 637.06C989.583 630.7 997.08 620.907 1003.72 607.68L1008.89 608.62L992 662C990.765 661.242 989.413 660.692 988 660.37C985.873 659.956 983.706 659.782 981.54 659.85L884.65 659.84ZM750 555C750 546.84 749.333 541.6 748 539.28C746.64 536.96 744.15 535.47 740.47 534.85V529.37H815V534.85C813.688 535.337 812.517 536.141 811.59 537.19C810.847 538.013 810.434 539.081 810.43 540.19C810.522 541.318 810.864 542.411 811.43 543.39C812.129 544.695 812.996 545.902 814.01 546.98L839.66 574.98V555C839.66 546.84 838.993 541.6 837.66 539.28C836.33 536.96 833.82 535.47 830.14 534.85V529.37H866.29V534.85C862.61 535.47 860.12 536.96 858.77 539.28C857.42 541.6 856.77 546.84 856.77 555V634.2C856.77 642.36 857.44 647.61 858.77 649.92C860.1 652.23 862.61 653.7 866.29 654.36V659.84H827.29V654.36C832.03 654.16 835.29 653.05 837 651.07C838.71 649.09 839.62 644.87 839.62 638.51V634L766.86 553.81V631.62C766.86 640.78 767.757 646.78 769.55 649.62C771.3 652.42 774.55 653.99 779.39 654.38V659.86H740.39V654.38C744.07 653.72 746.56 652.26 747.92 649.94C749.28 647.62 749.92 642.38 749.92 634.22L750 555ZM662.17 659.84V654.36C665.85 653.7 668.34 652.24 669.69 649.92C671.04 647.6 671.69 642.36 671.69 634.2V555C671.69 546.84 671.03 541.6 669.69 539.28C668.35 536.96 665.85 535.47 662.17 534.85V529.37H722.17V534.85C718.49 535.47 716.01 536.96 714.65 539.28C713.29 541.6 712.65 546.84 712.65 555V634.2C712.65 642.36 713.32 647.61 714.65 649.92C715.98 652.23 718.49 653.7 722.17 654.36V659.84H662.17ZM535.11 659.84V654.36C538.79 653.7 541.28 652.24 542.63 649.92C543.98 647.6 544.63 642.36 544.63 634.2V555C544.63 546.84 543.97 541.6 542.63 539.28C541.29 536.96 538.79 535.47 535.11 534.85V529.37H596.11V534.85C592.11 535.66 589.35 537.32 587.86 539.77C586.37 542.22 585.58 547.3 585.58 555V624.62C585.58 634.28 586.74 640.41 589.05 642.95C591.36 645.49 595.55 646.77 601.48 646.77C610.79 646.77 619.17 643.47 626.56 636.88C633.95 630.29 640.47 620.38 646 607.2L650.57 608.73L635.47 662C634.419 661.215 633.228 660.638 631.96 660.3C630.102 659.948 628.211 659.797 626.32 659.85L535.11 659.84ZM338.88 642.84L359.22 604.3L364.32 606.12C363.584 608.406 363.029 610.747 362.66 613.12C362.306 615.373 362.133 617.65 362.14 619.93C362.14 628.277 364.14 634.943 368.14 639.93C369.958 642.3 372.309 644.207 375.002 645.498C377.695 646.789 380.654 647.427 383.64 647.36C389.97 647.36 394.64 645.47 397.59 641.69C400.54 637.91 402.06 631.97 402.06 623.88V555C402.06 546.91 401.2 541.66 399.44 539.25C397.68 536.84 394.44 535.37 389.54 534.85V529.37H452.75V534.85C449.04 535.5 446.53 536.96 445.2 539.28C443.87 541.6 443.2 546.84 443.2 555V619.37C443.2 628.24 442.37 634.7 440.68 638.81C438.758 643.227 435.789 647.109 432.03 650.12C427.26 654.12 421.03 657.2 413.35 659.39C404.911 661.639 396.204 662.726 387.47 662.62C377.07 662.62 367.96 661.05 360.21 657.89C352.078 654.493 344.795 649.344 338.88 642.81V642.84ZM247.67 546.97C248.028 546.036 248.316 545.077 248.53 544.1C248.722 543.189 248.822 542.261 248.83 541.33C248.866 539.98 248.419 538.661 247.57 537.61C246.434 536.394 245.04 535.448 243.49 534.84V529.36H303.93V534.84C302.413 535.354 301.041 536.225 299.93 537.38C299.033 538.283 298.52 539.498 298.5 540.77C298.504 541.602 298.584 542.433 298.74 543.25C298.996 544.539 299.33 545.811 299.74 547.06L330 634.79C332.82 643.01 335.34 648.26 337.46 650.57C338.508 651.727 339.779 652.659 341.197 653.31C342.615 653.962 344.15 654.319 345.71 654.36V659.84H277.85V654.36C281.457 653.693 284.05 652.52 285.63 650.84C287.23 649.11 288.02 646.63 288.02 643.37C288.02 634.917 283.687 627.503 275.02 621.13C266.353 614.757 255.353 611.157 242.02 610.33L234.23 631.83C233.362 634.321 232.621 636.854 232.01 639.42C231.557 641.281 231.302 643.185 231.25 645.1C231.25 648.16 232.11 650.45 233.86 652.01C235.61 653.57 238.21 654.36 241.62 654.36V659.84H196.62V654.36C200.814 653.67 204.673 651.642 207.62 648.58C210.4 645.62 213.567 639.393 217.12 629.9L247.67 546.97ZM247.27 596.08C252.512 596.636 257.685 597.718 262.71 599.31C267.292 600.805 271.661 602.886 275.71 605.5L261.16 558.5L247.27 596.08ZM71.1101 659.84V654.36C74.7901 653.7 77.2701 652.24 78.6301 649.92C79.9901 647.6 80.6301 642.36 80.6301 634.2V554.92C80.6301 546.8 79.9701 541.56 78.6301 539.24C77.2901 536.92 74.7901 535.43 71.1101 534.81V529.33H164.34C174.11 529.33 181.34 531.02 186.08 534.45C190.82 537.88 193.16 543.12 193.16 550.23C193.19 556.421 191.069 562.43 187.16 567.23C183.16 572.277 176.213 577.7 166.32 583.5C172.14 589.982 177.268 597.054 181.62 604.6C187.214 614.45 192.129 624.67 196.33 635.19L196.73 636.19C201.44 647.6 206.44 653.7 211.67 654.45V659.93H149.8V654.45C151.8 653.698 153.617 652.529 155.13 651.02C156.144 649.711 156.662 648.085 156.59 646.43C156.59 641.137 153.983 633.613 148.77 623.86C143.577 614.091 136.954 605.152 129.12 597.34L121.6 599.66V634.2C121.6 642.36 122.26 647.61 123.6 649.92C124.94 652.23 127.44 653.7 131.12 654.36V659.84H71.1101ZM121.6 584.7C131.48 582.547 139.123 579.013 144.53 574.1C149.937 569.187 152.633 563.34 152.62 556.56C152.62 551.56 151.22 547.98 148.44 545.66C145.66 543.34 141.32 542.24 135.35 542.24C130.05 542.24 126.44 542.827 124.52 544C122.52 545.18 121.6 548.17 121.6 553V584.7Z" fill="#F26B21"/>
<path d="M988 765.56H993.25V742.69C993.25 733.89 989.56 727.49 977.25 727.49C969.08 727.49 963.54 731.97 961.98 735.88H961.84V728.63H956.58V765.56H961.84V745.56C961.84 737.18 966.53 731.93 976.84 731.93C983.51 731.93 987.99 734.48 987.99 741.8L988 765.56ZM902.74 747.1C902.74 757.39 909.48 766.7 923.74 766.7C938 766.7 944.69 757.39 944.69 747.1C944.69 736.81 937.94 727.49 923.74 727.49C909.54 727.49 902.74 736.8 902.74 747.1ZM907.99 747.1C907.99 738.22 913.74 731.9 923.69 731.9C933.64 731.9 939.38 738.22 939.38 747.1C939.38 755.98 933.63 762.29 923.69 762.29C913.75 762.29 908 756 908 747.1H907.99ZM885.63 722.24H890.89V714.43H885.63V722.24ZM885.63 765.56H890.89V728.63H885.63V765.56ZM859.16 728.63H851.16V732.63H859.16V757C859.16 763 860.94 766.16 869.1 766.16C871.028 766.151 872.952 766.007 874.86 765.73V761.33C873.149 761.65 871.41 761.794 869.67 761.76C865.41 761.76 864.42 760.26 864.42 757.07V732.61H874.86V728.61H864.42V717H859.16V728.63ZM811.59 740C811.95 734.11 815.93 731.91 824.23 731.91C832.9 731.91 836.45 733.83 836.45 739.15C836.45 742.78 835.03 743.41 823.52 744.05C815.43 744.48 805.13 745.61 805.13 755.63C805.13 763.94 813.13 766.71 819.48 766.71C831.55 766.71 835.1 761.71 836.73 759.32H836.88C836.95 762.23 837.23 765.86 842.56 765.86C844.042 765.815 845.516 765.624 846.96 765.29V761.74C846.04 761.81 845.11 761.88 844.19 761.88C842.13 761.88 841.28 760.81 841.28 757.76V738.43C841.28 731.33 836.73 727.49 824.38 727.49C811.73 727.49 807.54 732.25 806.76 739.99L811.59 740ZM836.45 751.3C836.45 758.89 828.14 762.73 821.04 762.73C815.36 762.73 810.39 761.03 810.39 755.27C810.39 750.87 813.94 749.02 820.04 748.45C830.56 747.45 834.11 747.18 836.45 745.68V751.3ZM778.09 759.53L763.6 728.63H757.92L775.25 765.56H780.93L798.26 728.63H792.58L778.09 759.53ZM708.5 747.1C708.5 757.39 715.25 766.7 729.5 766.7C743.75 766.7 750.45 757.39 750.45 747.1C750.45 736.81 743.7 727.49 729.5 727.49C715.3 727.49 708.5 736.8 708.5 747.1ZM713.76 747.1C713.76 738.22 719.51 731.9 729.46 731.9C739.41 731.9 745.15 738.22 745.15 747.1C745.15 755.98 739.4 762.29 729.46 762.29C719.52 762.29 713.76 756 713.76 747.1ZM691.26 765.56H696.51V742.69C696.51 733.89 692.82 727.49 680.51 727.49C672.34 727.49 666.8 731.97 665.24 735.88H665.1V728.63H659.84V765.56H665.1V745.56C665.1 737.18 669.78 731.93 680.1 731.93C686.78 731.93 691.25 734.48 691.25 741.8L691.26 765.56ZM641.35 765.56H646.6V742.69C646.6 733.89 642.91 727.49 630.6 727.49C622.44 727.49 616.9 731.97 615.33 735.88H615.19V728.63H610V765.56H615.25V745.56C615.25 737.18 619.94 731.93 630.25 731.93C636.92 731.93 641.4 734.48 641.4 741.8L641.35 765.56ZM591.58 722.24H596.83V714.43H591.58V722.24ZM591.58 765.56H596.83V728.63H591.58V765.56ZM540.53 765.56H545.78V746.74C545.78 736.23 552.67 732.74 558.35 732.74C559.973 732.739 561.593 732.883 563.19 733.17V727.77C562.159 727.569 561.11 727.472 560.06 727.48C551.32 727.48 547.84 732.67 545.93 737.07H545.78V728.62H540.53V765.56ZM522.01 765.56H527.26V728.63H522V748.63C522 757.01 517.31 762.26 507 762.26C500.33 762.26 495.85 759.71 495.85 752.39V728.63H490.6V751.5C490.6 760.31 494.29 766.7 506.6 766.7C514.76 766.7 520.3 762.22 521.86 758.32H522L522.01 765.56ZM436.73 747.1C436.73 757.39 443.48 766.7 457.68 766.7C471.88 766.7 478.63 757.39 478.63 747.1C478.63 736.81 471.88 727.49 457.68 727.49C443.48 727.49 436.73 736.8 436.73 747.1ZM441.98 747.1C441.98 738.22 447.74 731.9 457.68 731.9C467.62 731.9 473.37 738.22 473.37 747.1C473.37 755.98 467.62 762.29 457.68 762.29C447.74 762.29 442 756 442 747.1H441.98ZM409.61 759.38L394.56 728.63H388.88L406.88 765.85L404.43 771C402.73 774.69 400.88 775.54 397.11 775.54C395.69 775.54 394.49 775.47 393.35 775.4V779.8C394.91 779.95 396.76 779.95 398.35 779.95C404.18 779.95 406.45 778.31 409.15 772.49L429.15 728.67H423.47L409.61 759.38ZM355.09 765.56H360.34V714.43H355.09V736H354.94C352.53 731.31 346.94 727.47 339.89 727.47C326.11 727.47 319.79 736.78 319.79 747.08C319.79 756.08 324.79 766.68 339.89 766.68C348.84 766.68 353.52 761.28 354.94 758.16H355.09V765.56ZM355.37 747.1C355.37 756.76 348.62 762.29 339.89 762.29C329.16 762.29 325.04 754.48 325.04 747.1C325.04 737.72 331.58 731.9 339.89 731.9C350.61 731.9 355.37 739.5 355.37 747.1ZM302.55 765.56H307.8V742.69C307.8 733.89 304.11 727.49 291.8 727.49C283.64 727.49 278.09 731.97 276.53 735.88H276.39V728.63H271.13V765.56H276.39V745.56C276.39 737.18 281.08 731.93 291.39 731.93C298.06 731.93 302.54 734.48 302.54 741.8L302.55 765.56ZM227.14 740C227.49 734.11 231.47 731.91 239.78 731.91C248.44 731.91 251.99 733.83 251.99 739.15C251.99 742.78 250.57 743.41 239.07 744.05C230.98 744.48 220.68 745.61 220.68 755.63C220.68 763.94 228.68 766.71 235.02 766.71C247.1 766.71 250.65 761.71 252.28 759.32H252.42C252.49 762.23 252.78 765.86 258.1 765.86C259.582 765.817 261.056 765.626 262.5 765.29V761.74C261.58 761.81 260.66 761.88 259.74 761.88C257.68 761.88 256.82 760.81 256.82 757.76V738.43C256.82 731.33 252.28 727.49 239.92 727.49C227.28 727.49 223.09 732.25 222.31 739.99L227.14 740ZM252 751.29C252 758.88 243.7 762.72 236.59 762.72C230.91 762.72 225.94 761.02 225.94 755.26C225.94 750.86 229.49 749.01 235.6 748.44C246.11 747.44 249.66 747.17 252 745.67V751.29ZM175 747.1C175 737.44 181.74 731.9 190.48 731.9C201.2 731.9 205.32 739.71 205.32 747.1C205.32 756.47 198.79 762.29 190.48 762.29C179.79 762.29 175 754.7 175 747.1ZM170 779.91H175.26V758.18H175.4C177.82 762.86 183.5 766.7 190.46 766.7C204.24 766.7 210.56 757.39 210.56 747.1C210.56 738.1 205.56 727.49 190.46 727.49C180.23 727.49 176.82 732.89 175.4 736.02H175.26V728.63H170V779.91ZM119.81 765.56H126.7L140.34 750.22L154.04 765.56H161.04L143.71 746.39L159.71 728.63H152.82L140.4 742.69L127.9 728.63H121.08L136.84 746.39L119.81 765.56ZM106.33 753.77C104.49 759.38 100.51 762.29 91.7001 762.29C82.3301 762.29 76.8601 756.04 76.8601 748.37H112.51C112.51 731.61 101.22 727.49 91.7001 727.49C77.9201 727.49 71.6001 736.8 71.6001 747.1C71.6001 756.1 76.6001 766.7 91.7001 766.7C103.92 766.7 109.46 760.31 111.59 753.77H106.33ZM76.9101 744.4C78.1201 735.4 85.3601 731.9 92.1101 731.9C99.1101 731.9 105.81 735.31 107.31 744.4H76.9101Z" fill="#231F20"/>
<path d="M71.1101 689.75H991.99" stroke="#343A39" stroke-width="0.75" stroke-miterlimit="22.93"/>
</svg>
