<svg width="112" height="52" viewBox="0 0 112 52" fill="none" xmlns="http://www.w3.org/2000/svg">
<path fill-rule="evenodd" clip-rule="evenodd" d="M51.1588 0C60.1172 0 67.3763 7.14794 67.3763 15.9643C67.3763 24.7806 60.1172 31.9259 51.1588 31.9259C42.2004 31.9259 34.9414 24.7806 34.9414 15.9643C34.9414 7.14794 42.203 0 51.1588 0Z" fill="white"/>
<path fill-rule="evenodd" clip-rule="evenodd" d="M51.1591 1.70963C59.153 1.70963 65.6384 8.09172 65.6384 15.9643C65.6384 23.8368 59.1556 30.2163 51.1591 30.2163C43.1625 30.2163 36.6797 23.8342 36.6797 15.9643C36.6797 8.09429 43.1625 1.70963 51.1591 1.70963Z" fill="#F36C21"/>
<path fill-rule="evenodd" clip-rule="evenodd" d="M53.4251 9.76782C58.9848 9.76782 63.482 14.2031 63.482 19.6749C63.482 25.1467 58.9744 29.582 53.4251 29.582C47.8757 29.582 43.3682 25.1467 43.3682 19.6749C43.3682 14.2031 47.8757 9.76782 53.4251 9.76782Z" fill="white"/>
<path fill-rule="evenodd" clip-rule="evenodd" d="M53.4258 13.2722C54.6889 13.2895 55.9187 13.6798 56.9605 14.3942C58.0024 15.1086 58.8097 16.115 59.281 17.287C59.7524 18.459 59.8666 19.7442 59.6094 20.9809C59.3523 22.2177 58.7351 23.3507 57.8356 24.2377C56.9362 25.1246 55.7945 25.7258 54.5543 25.9657C53.314 26.2055 52.0305 26.0733 50.8652 25.5856C49.6999 25.0979 48.7048 24.2766 48.0051 23.2249C47.3054 22.1732 46.9322 20.9381 46.9326 19.6749C46.9383 18.827 47.1113 17.9886 47.4416 17.2076C47.7718 16.4267 48.2529 15.7185 48.8572 15.1238C49.4616 14.529 50.1773 14.0593 50.9635 13.7416C51.7497 13.4239 52.5908 13.2644 53.4387 13.2722" fill="#231F20"/>
<path d="M49.4287 23.3881V23.0761C49.5149 23.0681 49.5981 23.0407 49.6722 22.9961C49.7463 22.9514 49.8094 22.8906 49.8568 22.8182C49.9574 22.5313 49.9961 22.2264 49.9702 21.9234V17.4186C49.996 17.1165 49.9573 16.8124 49.8568 16.5264C49.8094 16.454 49.7463 16.3932 49.6722 16.3485C49.5981 16.3039 49.5149 16.2765 49.4287 16.2685V15.9617H54.7331C55.1607 15.93 55.5878 16.0289 55.958 16.2453C56.0953 16.3495 56.2043 16.4865 56.275 16.6437C56.3457 16.8009 56.3759 16.9734 56.3628 17.1453C56.3629 17.4966 56.2418 17.8372 56.0199 18.1097C55.6814 18.485 55.28 18.7983 54.8337 19.0354C55.1647 19.404 55.4568 19.8058 55.7053 20.2344C56.0228 20.7951 56.3019 21.3766 56.5408 21.975L56.564 22.0292C56.8218 22.679 57.1158 23.0271 57.4149 23.0606V23.3881H53.895V23.0761C54.0087 23.0333 54.1123 22.9674 54.1993 22.8827C54.2558 22.8089 54.2849 22.7177 54.2818 22.6248C54.2322 22.1669 54.0797 21.7262 53.8357 21.3355C53.5406 20.7799 53.1643 20.2715 52.7191 19.827L52.2911 19.9585V21.9183C52.2643 22.2214 52.3039 22.5268 52.4071 22.8131C52.4539 22.8854 52.5165 22.9462 52.5902 22.9909C52.6639 23.0355 52.7468 23.0629 52.8326 23.0709V23.3881H49.4287ZM52.3014 19.1127C52.7817 19.0294 53.2316 18.8213 53.6062 18.5093C53.7515 18.3871 53.8679 18.2342 53.9473 18.0617C54.0266 17.8892 54.0669 17.7013 54.0652 17.5114C54.074 17.3971 54.0573 17.2823 54.0162 17.1753C53.9752 17.0683 53.9109 16.9717 53.828 16.8926C53.609 16.7446 53.3462 16.6755 53.0827 16.6966C52.8722 16.6791 52.6605 16.7136 52.4664 16.7971C52.3555 16.8642 52.3014 17.0344 52.3014 17.3129V19.1127Z" fill="white"/>
<path d="M88.7613 47.6401V47.0418C88.9258 47.028 89.085 46.9776 89.2274 46.8941C89.3697 46.8107 89.4916 46.6964 89.5839 46.5596C89.7309 46.3017 89.8031 45.7344 89.8031 44.8474V36.191C89.8031 35.3039 89.7309 34.7366 89.5839 34.4839C89.4921 34.3464 89.3705 34.2314 89.228 34.1475C89.0856 34.0635 88.9261 34.0128 88.7613 33.9991V33.4009H98.7331C98.9948 33.407 99.2558 33.3722 99.5067 33.2978C99.6949 33.2401 99.8612 33.1268 99.9838 32.9728L101.198 37.8722L100.631 37.9573C100.26 37.01 99.6063 36.1998 98.7589 35.6366C97.8639 35.0921 96.8302 34.8189 95.7831 34.8501C95.2055 34.8501 94.8084 34.9584 94.5969 35.1673C94.3855 35.3761 94.2797 35.8325 94.2797 36.5339V38.0089H95.4943C96.2524 38.0089 96.7656 37.8954 97.026 37.6685C97.2865 37.4416 97.4567 37.0058 97.5418 36.3663H97.975L98.9059 41.8124L98.4727 41.9155C98.1839 41.0053 97.8125 40.3683 97.351 40.0176C96.8894 39.667 96.2421 39.4839 95.3963 39.4839H94.2875V44.177C94.2875 44.9918 94.4216 45.5307 94.6846 45.8015C94.9476 46.0722 95.4582 46.2063 96.1802 46.2063C97.3116 46.224 98.416 45.8607 99.3159 45.1749C100.227 44.4873 101.045 43.4188 101.771 41.9697L102.333 42.0728L100.489 47.8824C100.353 47.7991 100.204 47.739 100.048 47.7045C99.8164 47.6596 99.5803 47.6406 99.3443 47.6478L88.7613 47.6401ZM74.0756 36.1987C74.0756 35.3091 74.0034 34.7366 73.8539 34.4839C73.7629 34.3462 73.6418 34.231 73.4997 34.147C73.3577 34.063 73.1983 34.0125 73.0338 33.9991V33.4009H81.1671V33.9991C81.0236 34.0525 80.8959 34.1412 80.7957 34.257C80.7142 34.3465 80.6691 34.4634 80.6694 34.5845C80.6789 34.7072 80.7159 34.8262 80.7777 34.9326C80.8522 35.0759 80.9469 35.2079 81.0587 35.3246L83.8566 38.3776V36.2013C83.8566 35.3125 83.7844 34.7409 83.64 34.4865C83.5492 34.3487 83.4281 34.2334 83.286 34.1494C83.1439 34.0654 82.9846 34.0149 82.82 34.0017V33.4035H86.7628V34.0017C86.5984 34.0154 86.4392 34.0662 86.2972 34.1501C86.1552 34.2341 86.0341 34.3491 85.9428 34.4865C85.795 34.7392 85.7219 35.3108 85.7236 36.2013V44.8474C85.7236 45.7379 85.7967 46.3095 85.9428 46.5622C86.0346 46.6989 86.156 46.8132 86.2979 46.8967C86.4398 46.9801 86.5987 47.0306 86.7628 47.0444V47.6426H82.5183V47.0444C83.034 47.0238 83.3847 46.9026 83.5756 46.686C83.7664 46.4694 83.8618 46.0104 83.8618 45.3167V44.8242L75.9246 36.0749V44.5663C75.9246 45.5643 76.0226 46.2192 76.216 46.5261C76.4094 46.8329 76.7652 47.0031 77.2913 47.0418V47.6401H73.0338V47.0418C73.198 47.0284 73.3571 46.9781 73.4991 46.8946C73.6411 46.8111 73.7623 46.6966 73.8539 46.5596C74.0034 46.3017 74.0756 45.7345 74.0756 44.8448V36.1987ZM64.488 47.6401V47.0418C64.6525 47.028 64.8117 46.9776 64.9541 46.8941C65.0965 46.8107 65.2183 46.6964 65.3107 46.5596C65.4568 46.3069 65.5298 45.7353 65.5298 44.8448V36.1987C65.5298 35.3099 65.4568 34.7383 65.3107 34.4839C65.2189 34.3464 65.0972 34.2314 64.9548 34.1475C64.8123 34.0635 64.6528 34.0128 64.488 33.9991V33.4009H71.0379V33.9991C70.8736 34.0132 70.7146 34.0641 70.5726 34.148C70.4307 34.2319 70.3094 34.3467 70.2179 34.4839C70.0718 34.7366 69.9987 35.3082 69.9987 36.1987V44.8448C69.9987 45.7353 70.0718 46.3069 70.2179 46.5596C70.31 46.696 70.4314 46.8102 70.5733 46.8936C70.7152 46.977 70.8739 47.0277 71.0379 47.0418V47.6401H64.488ZM50.625 47.6401V47.0418C50.7894 47.028 50.9487 46.9776 51.091 46.8941C51.2334 46.8107 51.3552 46.6964 51.4476 46.5596C51.5954 46.3069 51.6685 45.7353 51.6668 44.8448V36.1987C51.6668 35.3099 51.5937 34.7383 51.4476 34.4839C51.3558 34.3464 51.2341 34.2314 51.0917 34.1475C50.9493 34.0635 50.7897 34.0128 50.625 33.9991V33.4009H57.2857V33.9991C57.1061 34.0202 56.9329 34.0789 56.7774 34.1713C56.6219 34.2637 56.4876 34.3878 56.3832 34.5355C56.2113 34.8037 56.1253 35.3581 56.1253 36.1987V43.7953C56.1253 44.8474 56.2517 45.5153 56.5044 45.7938C56.7571 46.0722 57.2135 46.2089 57.8608 46.2089C58.878 46.2086 59.8571 45.8214 60.5994 45.1259C61.4091 44.409 62.1131 43.3209 62.7216 41.8923L63.2193 42.0599L61.569 47.8695C61.4533 47.7847 61.3231 47.7218 61.1847 47.6839C60.9825 47.6459 60.7767 47.6294 60.571 47.6349L50.625 47.6401ZM29.2218 45.7834L31.442 41.5777L31.999 41.7763C31.918 42.0288 31.8577 42.2875 31.8185 42.5498C31.7803 42.7955 31.7614 43.0438 31.7618 43.2925C31.7202 44.0733 31.9528 44.844 32.4194 45.4714C32.6182 45.7295 32.8748 45.9373 33.1687 46.0779C33.4625 46.2186 33.7853 46.2882 34.111 46.2811C34.7995 46.2811 35.3101 46.0748 35.6324 45.6622C35.9548 45.2497 36.1198 44.6024 36.1198 43.7205V36.1987C36.1198 35.3168 36.027 34.7418 35.8336 34.4788C35.6402 34.2157 35.2843 34.0559 34.7531 33.9991V33.4009H41.6511V33.9991C41.4859 34.0125 41.3259 34.063 41.1829 34.1469C41.04 34.2309 40.918 34.3461 40.8259 34.4839C40.6815 34.7418 40.6093 35.3091 40.6093 36.1987V43.2203C40.6093 44.1899 40.5191 44.8938 40.336 45.3425C40.1243 45.8235 39.8007 46.247 39.3922 46.5777C38.7904 47.0529 38.0954 47.3964 37.3524 47.5859C36.4319 47.8329 35.4817 47.9517 34.5287 47.9392C33.5136 47.9615 32.5038 47.7863 31.5555 47.4234C30.6638 47.0558 29.8643 46.4958 29.2141 45.7834H29.2218ZM19.2629 35.3271C19.3029 35.2258 19.3348 35.1215 19.3583 35.0151C19.3784 34.9158 19.3888 34.8148 19.3892 34.7134C19.3936 34.5657 19.3451 34.4212 19.2526 34.306C19.1294 34.1732 18.9777 34.0701 18.809 34.0043V33.4061H25.4027V34.0043C25.2373 34.061 25.0879 34.1565 24.9669 34.2828C24.8702 34.3815 24.8149 34.5134 24.8122 34.6515C24.8134 34.7381 24.8221 34.8243 24.838 34.9094C24.8673 35.0497 24.9043 35.1883 24.9489 35.3246L28.2419 44.9016C28.5513 45.7963 28.8247 46.3688 29.0568 46.6215C29.1707 46.748 29.3093 46.8499 29.4641 46.9208C29.6188 46.9918 29.7865 47.0303 29.9567 47.0341V47.6323H22.5559V47.0341C22.8732 46.9999 23.1713 46.8653 23.4068 46.6499C23.5931 46.4208 23.6853 46.1295 23.6647 45.835C23.6647 44.9144 23.1902 44.1022 22.2387 43.4085C21.2871 42.7149 20.088 42.3204 18.6285 42.2327L17.793 44.5844C17.6899 44.8912 17.6099 45.1646 17.5506 45.4121C17.5016 45.6158 17.4739 45.8241 17.4681 46.0336C17.458 46.1724 17.4784 46.3117 17.5278 46.4417C17.5773 46.5718 17.6546 46.6895 17.7543 46.7865C17.9949 46.9737 18.2961 47.0655 18.6001 47.0444V47.6426H13.7006V47.0444C14.1533 46.9675 14.5693 46.7469 14.8868 46.4152C15.1885 46.0903 15.5366 45.4121 15.9183 44.3781L19.2629 35.3271ZM19.219 40.6855C19.7918 40.7453 20.3569 40.8637 20.9055 41.0388C21.4044 41.2023 21.8803 41.4293 22.3212 41.7144L20.7353 36.5907L19.219 40.6855ZM0 47.6401V47.0418C0.164181 47.0284 0.32321 46.9781 0.465206 46.8946C0.607202 46.8111 0.728496 46.6966 0.820026 46.5596C0.96959 46.3017 1.04179 45.7345 1.04179 44.8448V36.1935C1.04179 35.3091 0.96959 34.7366 0.820026 34.4839C0.729051 34.3462 0.607947 34.231 0.465879 34.147C0.32381 34.063 0.164499 34.0125 0 33.9991V33.4009H10.173C11.238 33.4009 12.0296 33.5866 12.5428 33.9605C13.0559 34.3344 13.3164 34.9068 13.3164 35.683C13.3184 36.3569 13.0859 37.0105 12.6588 37.5319C12.223 38.0837 11.4675 38.6742 10.3844 39.3085C11.0193 40.0155 11.5793 40.7863 12.0554 41.6087C12.6682 42.6837 13.2067 43.7994 13.6671 44.948L13.7109 45.0511C14.2267 46.2966 14.7708 46.9619 15.3407 47.0418V47.6401H8.58448V47.0418C8.80318 46.9626 9.00204 46.8368 9.16727 46.6731C9.27908 46.531 9.33585 46.3534 9.32715 46.1728C9.32715 45.5952 9.04263 44.7743 8.4736 43.7102C7.90668 42.6449 7.18448 41.6699 6.3307 40.817L5.5081 41.0749V44.8551C5.5081 45.7448 5.5803 46.3172 5.72986 46.5699C5.82139 46.7069 5.94269 46.8214 6.08468 46.9049C6.22668 46.9884 6.38571 47.0387 6.54989 47.0521V47.6504L0 47.6401ZM5.5081 39.4529C6.42835 39.2926 7.29066 38.8943 8.00943 38.2977C8.28811 38.0625 8.51176 37.7691 8.66459 37.438C8.81742 37.107 8.89571 36.7464 8.89392 36.3818C8.91261 36.162 8.88124 35.9409 8.80219 35.735C8.72314 35.5291 8.59845 35.3438 8.4375 35.193C8.13321 34.9352 7.66389 34.8217 7.0089 34.8217C6.43127 34.8217 6.03673 34.8836 5.82785 35.0125C5.61898 35.1415 5.5081 35.469 5.5081 35.9976V39.4529Z" fill="#F36C21"/>
<path fill-rule="evenodd" clip-rule="evenodd" d="M104.93 30.4896H105.941C106.426 30.4896 106.756 30.4174 106.931 30.2756C107.015 30.2068 107.082 30.1196 107.126 30.0208C107.171 29.9219 107.193 29.8141 107.189 29.7057C107.191 29.5596 107.145 29.4168 107.06 29.2983C106.973 29.175 106.851 29.0807 106.709 29.0276C106.436 28.9552 106.153 28.9256 105.871 28.9399H104.922L104.93 30.4896ZM104.097 33.3932V28.2359H105.871C106.315 28.2161 106.76 28.2648 107.189 28.3803C107.455 28.4714 107.684 28.6471 107.841 28.8806C107.996 29.1022 108.08 29.3658 108.081 29.6361C108.083 29.819 108.048 30.0004 107.978 30.1696C107.909 30.3388 107.806 30.4923 107.676 30.6211C107.39 30.9078 107.006 31.0754 106.601 31.0905C106.763 31.1536 106.911 31.2463 107.039 31.3638C107.334 31.6781 107.594 32.024 107.813 32.3952L108.442 33.4035H107.429L106.97 32.5938C106.609 31.9526 106.317 31.5512 106.096 31.3896C105.898 31.2598 105.663 31.1991 105.428 31.2168H104.938V33.4035L104.097 33.3932ZM106.204 26.7377C105.514 26.7423 104.837 26.9196 104.234 27.2535C103.601 27.5921 103.081 28.1072 102.735 28.7362C102.384 29.3464 102.197 30.0379 102.194 30.7423C102.195 31.4403 102.379 32.1258 102.728 32.7305C103.071 33.3552 103.586 33.8694 104.21 34.2132C104.816 34.5628 105.503 34.7469 106.203 34.7469C106.902 34.7469 107.589 34.5628 108.195 34.2132C108.82 33.8709 109.335 33.3564 109.677 32.7305C110.023 32.1249 110.205 31.4397 110.206 30.7423C110.203 30.0383 110.017 29.3471 109.667 28.7362C109.322 28.1072 108.801 27.5921 108.169 27.2535C107.567 26.9205 106.892 26.7432 106.204 26.7377ZM106.204 25.9435C107.03 25.9468 107.841 26.1588 108.563 26.5598C109.325 26.9626 109.953 27.5792 110.368 28.3339C110.785 29.0675 111.006 29.896 111.011 30.7398C111.008 31.5763 110.79 32.398 110.376 33.125C109.97 33.8774 109.353 34.4955 108.602 34.9042C107.874 35.3199 107.051 35.5385 106.213 35.5385C105.375 35.5385 104.551 35.3199 103.824 34.9042C103.073 34.4941 102.456 33.8764 102.047 33.125C101.627 32.3964 101.406 31.5703 101.406 30.7295C101.406 29.8886 101.627 29.0625 102.047 28.3339C102.465 27.5805 103.092 26.9643 103.852 26.5598C104.572 26.1601 105.381 25.9481 106.204 25.9435Z" fill="#231F20"/>
<path d="M0 50.9046H100.474" stroke="#343A39" stroke-width="0.75" stroke-miterlimit="22.93"/>
</svg>
