<svg width="122" height="66" viewBox="0 0 122 66" fill="none" xmlns="http://www.w3.org/2000/svg">
<path fill-rule="evenodd" clip-rule="evenodd" d="M55.8025 0C65.3728 0 73.1275 7.75783 73.1275 17.3264C73.1275 26.895 65.3728 34.65 55.8025 34.65C46.2323 34.65 38.4775 26.895 38.4775 17.3264C38.4775 7.75783 46.2351 0 55.8025 0Z" fill="white"/>
<path fill-rule="evenodd" clip-rule="evenodd" d="M55.8024 1.65002C64.4566 1.65002 71.4774 8.66868 71.4774 17.3264C71.4774 25.9842 64.4593 33 55.8024 33C47.1456 33 40.1274 25.9814 40.1274 17.3264C40.1274 8.67152 47.1456 1.65002 55.8024 1.65002Z" fill="url(#paint0_linear_56_3)"/>
<path fill-rule="evenodd" clip-rule="evenodd" d="M55.8024 9.90002C61.7314 9.90002 66.5274 14.7015 66.5274 20.625C66.5274 26.5486 61.7203 31.35 55.8024 31.35C49.8844 31.35 45.0774 26.5486 45.0774 20.625C45.0774 14.7015 49.8844 9.90002 55.8024 9.90002Z" fill="white"/>
<path fill-rule="evenodd" clip-rule="evenodd" d="M56.7178 14.8503C58.0193 14.8681 59.2865 15.2703 60.3599 16.0064C61.4335 16.7426 62.2653 17.7796 62.751 18.9872C63.2366 20.1949 63.3543 21.5191 63.0893 22.7936C62.8243 24.0679 62.1885 25.2355 61.2616 26.1494C60.3348 27.0634 59.1585 27.6828 57.8806 27.9299C56.6027 28.1771 55.2802 28.0408 54.0795 27.5383C52.8789 27.0359 51.8535 26.1896 51.1326 25.1059C50.4116 24.0222 50.0271 22.7494 50.0275 21.4478C50.0334 20.5741 50.2116 19.7102 50.5519 18.9054C50.8922 18.1008 51.3879 17.3711 52.0106 16.7583C52.6333 16.1453 53.3707 15.6614 54.1808 15.334C54.9909 15.0066 55.8575 14.8422 56.7311 14.8503" fill="#231F20"/>
<path d="M51.6776 24.75V24.4036C51.7666 24.3948 51.8526 24.3644 51.9292 24.3148C52.0057 24.2653 52.0709 24.1977 52.1198 24.1174C52.2238 23.7989 52.2637 23.4604 52.237 23.1242V18.1236C52.2636 17.7883 52.2236 17.4507 52.1198 17.1333C52.0709 17.0529 52.0057 16.9853 51.9292 16.9358C51.8526 16.8862 51.7666 16.8559 51.6776 16.847V16.5064H57.1571C57.5989 16.4712 58.0401 16.581 58.4225 16.8212C58.5643 16.937 58.677 17.089 58.75 17.2635C58.823 17.438 58.8543 17.6294 58.8408 17.8202C58.8408 18.2102 58.7157 18.5884 58.4864 18.8907C58.1368 19.3074 57.7221 19.6551 57.2611 19.9183C57.603 20.3275 57.9048 20.7735 58.1614 21.2493C58.4895 21.8716 58.7778 22.5171 59.0245 23.1815L59.0485 23.2415C59.3149 23.9628 59.6186 24.3492 59.9276 24.3864V24.75H56.2914V24.4036C56.4088 24.3561 56.5158 24.283 56.6058 24.189C56.6641 24.107 56.6942 24.0058 56.691 23.9027C56.6397 23.3945 56.4822 22.9052 56.2301 22.4716C55.9253 21.8548 55.5366 21.2905 55.0767 20.7971L54.6345 20.9431V23.1185C54.6068 23.455 54.6477 23.7938 54.7544 24.1117C54.8027 24.192 54.8674 24.2595 54.9435 24.3091C55.0197 24.3586 55.1053 24.389 55.1939 24.3979V24.75H51.6776ZM54.6451 20.0041C55.1413 19.9116 55.6061 19.6806 55.993 19.3344C56.1431 19.1986 56.2634 19.029 56.3454 18.8375C56.4273 18.6461 56.469 18.4375 56.4673 18.2267C56.4762 18.0998 56.459 17.9723 56.4166 17.8535C56.3742 17.7347 56.3078 17.6276 56.2222 17.5397C55.9959 17.3755 55.7244 17.2988 55.4523 17.3222C55.2348 17.3028 55.0161 17.3411 54.8156 17.4338C54.7011 17.5083 54.6451 17.6972 54.6451 18.0063V20.0041Z" fill="white"/>
<path d="M96.416 52.4681V51.8087C96.5937 51.7935 96.7657 51.7379 96.9195 51.646C97.0733 51.5539 97.2049 51.4279 97.3046 51.2771C97.4635 50.9929 97.5415 50.3675 97.5415 49.3897V39.8474C97.5415 38.8697 97.4635 38.2443 97.3046 37.9657C97.2055 37.8141 97.0741 37.6874 96.9202 37.5949C96.7663 37.5023 96.594 37.4464 96.416 37.4313V36.7718H107.188C107.471 36.7787 107.753 36.7402 108.024 36.6581C108.228 36.5946 108.408 36.4697 108.54 36.3L109.852 41.7007L109.239 41.7945C108.838 40.7503 108.132 39.8572 107.216 39.2363C106.25 38.6361 105.133 38.335 104.002 38.3694C103.378 38.3694 102.949 38.4887 102.72 38.7189C102.492 38.9492 102.378 39.4523 102.378 40.2255V41.8515H103.69C104.509 41.8515 105.063 41.7264 105.344 41.4762C105.626 41.2261 105.81 40.7457 105.901 40.0408H106.37L107.375 46.0441L106.907 46.1578C106.595 45.1544 106.194 44.4523 105.695 44.0657C105.197 43.6791 104.498 43.4773 103.584 43.4773H102.386V48.6506C102.386 49.5489 102.531 50.143 102.815 50.4414C103.099 50.7399 103.651 50.8877 104.431 50.8877C105.653 50.9072 106.846 50.5066 107.818 49.7508C108.803 48.9928 109.687 47.8149 110.47 46.2175L111.078 46.3312L109.086 52.7354C108.939 52.6435 108.778 52.5772 108.609 52.5392C108.359 52.4897 108.104 52.4687 107.849 52.4767L96.416 52.4681ZM80.5511 39.856C80.5511 38.8753 80.4731 38.2443 80.3116 37.9657C80.2133 37.8139 80.0824 37.687 79.929 37.5943C79.7755 37.5017 79.6034 37.446 79.4257 37.4313V36.7718H88.212V37.4313C88.0569 37.4902 87.919 37.5879 87.8108 37.7155C87.7227 37.8143 87.674 37.9431 87.6744 38.0766C87.6846 38.2118 87.7246 38.343 87.7913 38.4602C87.8719 38.6183 87.9742 38.7638 88.0949 38.8924L91.1175 42.2578V39.8588C91.1175 38.8791 91.0395 38.249 90.8835 37.9685C90.7853 37.8166 90.6546 37.6896 90.5011 37.5969C90.3476 37.5043 90.1754 37.4486 89.9977 37.4341V36.7746H94.257V37.4341C94.0795 37.4493 93.9075 37.5052 93.754 37.5977C93.6006 37.6903 93.4698 37.817 93.3712 37.9685C93.2114 38.2471 93.1326 38.8772 93.1344 39.8588V49.3897C93.1344 50.3713 93.2134 51.0014 93.3712 51.28C93.4703 51.4306 93.6015 51.5567 93.7548 51.6487C93.9081 51.7407 94.0798 51.7964 94.257 51.8115V52.471H89.6717V51.8115C90.2289 51.7888 90.6077 51.6553 90.8139 51.4165C91.02 51.1777 91.1231 50.6718 91.1231 49.907V49.3642L82.5485 39.7195V49.0799C82.5485 50.18 82.6544 50.902 82.8633 51.2402C83.0722 51.5784 83.4566 51.7661 84.025 51.8087V52.4681H79.4257V51.8087C79.6031 51.794 79.7748 51.7385 79.9282 51.6464C80.0816 51.5543 80.2127 51.4282 80.3116 51.2771C80.4731 50.9929 80.5511 50.3675 80.5511 49.3869V39.856ZM70.1937 52.4681V51.8087C70.3713 51.7935 70.5434 51.7379 70.6972 51.646C70.851 51.5539 70.9826 51.4279 71.0824 51.2771C71.2402 50.9986 71.3191 50.3685 71.3191 49.3869V39.856C71.3191 38.8763 71.2402 38.2461 71.0824 37.9657C70.9832 37.8141 70.8517 37.6874 70.6979 37.5949C70.544 37.5023 70.3716 37.4464 70.1937 37.4313V36.7718H77.2695V37.4313C77.092 37.4469 76.9202 37.5029 76.7668 37.5954C76.6135 37.6879 76.4825 37.8145 76.3836 37.9657C76.2257 38.2443 76.1469 38.8743 76.1469 39.856V49.3869C76.1469 50.3685 76.2257 50.9986 76.3836 51.2771C76.4831 51.4275 76.6143 51.5533 76.7676 51.6453C76.9209 51.7373 77.0924 51.7931 77.2695 51.8087V52.4681H70.1937ZM55.2175 52.4681V51.8087C55.3951 51.7935 55.5672 51.7379 55.7209 51.646C55.8747 51.5539 56.0064 51.4279 56.1061 51.2771C56.2658 50.9986 56.3448 50.3685 56.3429 49.3869V39.856C56.3429 38.8763 56.264 38.2461 56.1061 37.9657C56.0069 37.8141 55.8756 37.6874 55.7217 37.5949C55.5678 37.5023 55.3955 37.4464 55.2175 37.4313V36.7718H62.413V37.4313C62.219 37.4546 62.0318 37.5193 61.8639 37.6211C61.6959 37.723 61.5508 37.8598 61.4381 38.0226C61.2523 38.3182 61.1595 38.9293 61.1595 39.856V48.23C61.1595 49.3897 61.296 50.1259 61.569 50.433C61.842 50.7399 62.3351 50.8905 63.0343 50.8905C64.1332 50.8902 65.1909 50.4634 65.9928 49.6967C66.8675 48.9065 67.628 47.707 68.2854 46.1323L68.8231 46.3169L67.0402 52.7211C66.9152 52.6276 66.7745 52.5583 66.6251 52.5165C66.4067 52.4745 66.1843 52.4565 65.9621 52.4625L55.2175 52.4681ZM32.0956 50.4216L34.4942 45.7855L35.0959 46.0043C35.0084 46.2828 34.9432 46.5679 34.901 46.8571C34.8596 47.1279 34.8392 47.4016 34.8396 47.6757C34.7946 48.5364 35.046 49.3861 35.55 50.0777C35.7647 50.3621 36.042 50.5911 36.3595 50.7462C36.6769 50.9012 37.0256 50.978 37.3775 50.9702C38.1212 50.9702 38.6728 50.7427 39.0211 50.288C39.3693 49.8331 39.5476 49.1197 39.5476 48.1475V39.856C39.5476 38.8838 39.4473 38.2499 39.2384 37.9601C39.0294 37.6701 38.645 37.4938 38.0711 37.4313V36.7718H45.523V37.4313C45.3446 37.446 45.1717 37.5017 45.0173 37.5942C44.8629 37.6867 44.7311 37.8138 44.6315 37.9657C44.4756 38.2499 44.3976 38.8753 44.3976 39.856V47.5962C44.3976 48.6649 44.3 49.4409 44.1022 49.9355C43.8736 50.4658 43.524 50.9326 43.0827 51.297C42.4325 51.8209 41.6819 52.1996 40.8792 52.4084C39.8847 52.6808 38.8583 52.8118 37.8288 52.7979C36.7321 52.8225 35.6413 52.6295 34.6167 52.2294C33.6535 51.8241 32.7898 51.2068 32.0873 50.4216H32.0956ZM21.3371 38.8952C21.3803 38.7835 21.4148 38.6685 21.4401 38.5512C21.462 38.4417 21.4731 38.3304 21.4735 38.2186C21.4783 38.0558 21.4259 37.8965 21.326 37.7695C21.1929 37.6232 21.0291 37.5095 20.8468 37.437V36.7776H27.97V37.437C27.7913 37.4996 27.6298 37.6048 27.4991 37.744C27.3947 37.8527 27.3349 37.9981 27.3321 38.1505C27.3334 38.2458 27.3427 38.3409 27.3599 38.4347C27.3915 38.5894 27.4315 38.7422 27.4796 38.8924L31.0371 49.4495C31.3714 50.4358 31.6666 51.0668 31.9173 51.3454C32.0405 51.4849 32.1902 51.5972 32.3574 51.6754C32.5246 51.7536 32.7058 51.796 32.8896 51.8001V52.4596H24.8945V51.8001C25.2373 51.7625 25.5594 51.6142 25.8137 51.3767C26.015 51.1241 26.1146 50.803 26.0924 50.4784C26.0924 49.4636 25.5798 48.5682 24.5518 47.8036C23.5239 47.0389 22.2285 46.6041 20.6518 46.5075L19.7492 49.0998C19.6378 49.4381 19.5514 49.7393 19.4874 50.0122C19.4344 50.2368 19.4045 50.4664 19.3982 50.6973C19.3873 50.8503 19.4094 51.0038 19.4627 51.1472C19.5162 51.2906 19.5997 51.4204 19.7074 51.5273C19.9673 51.7336 20.2927 51.8349 20.6212 51.8115V52.471H15.3282V51.8115C15.8172 51.7268 16.2666 51.4836 16.6097 51.118C16.9356 50.7598 17.3116 50.0123 17.724 48.8724L21.3371 38.8952ZM21.2897 44.802C21.9085 44.8679 22.5189 44.9984 23.1116 45.1914C23.6506 45.3715 24.1646 45.6219 24.641 45.9361L22.9277 40.288L21.2897 44.802ZM0.527466 52.4681V51.8087C0.704831 51.794 0.876627 51.7385 1.03003 51.6464C1.18342 51.5543 1.31446 51.4282 1.41334 51.2771C1.57491 50.9929 1.65291 50.3675 1.65291 49.3869V39.8502C1.65291 38.8753 1.57491 38.2443 1.41334 37.9657C1.31505 37.8139 1.18423 37.687 1.03075 37.5943C0.877277 37.5017 0.705174 37.446 0.527466 37.4313V36.7718H11.5173C12.6678 36.7718 13.523 36.9765 14.0774 37.3887C14.6317 37.8008 14.9131 38.4319 14.9131 39.2875C14.9153 40.0304 14.6642 40.7509 14.2027 41.3255C13.732 41.9338 12.9157 42.5848 11.7457 43.284C12.4316 44.0633 13.0366 44.913 13.5508 45.8196C14.2129 47.0045 14.7947 48.2345 15.2919 49.5006L15.3393 49.6142C15.8965 50.9873 16.4843 51.7206 17.0999 51.8087V52.4681H9.80126V51.8087C10.0375 51.7214 10.2523 51.5827 10.4308 51.4022C10.5516 51.2456 10.613 51.0498 10.6035 50.8508C10.6035 50.2141 10.2962 49.3092 9.68146 48.1362C9.06903 46.9619 8.28884 45.887 7.3665 44.9469L6.47784 45.2312V49.3983C6.47784 50.379 6.55584 51.01 6.71742 51.2885C6.81629 51.4395 6.94733 51.5657 7.10073 51.6578C7.25412 51.7498 7.42593 51.8053 7.60328 51.82V52.4795L0.527466 52.4681ZM6.47784 43.4432C7.472 43.2664 8.40354 42.8274 9.18002 42.1698C9.48108 41.9105 9.72268 41.587 9.88779 41.2221C10.0529 40.8572 10.1375 40.4597 10.1355 40.0578C10.1557 39.8155 10.1218 39.5717 10.0364 39.3449C9.95104 39.1179 9.81634 38.9136 9.64247 38.7474C9.31374 38.4632 8.80673 38.3381 8.09915 38.3381C7.47515 38.3381 7.04893 38.4063 6.82327 38.5484C6.59763 38.6905 6.47784 39.0515 6.47784 39.6343V43.4432Z" fill="white"/>
<path fill-rule="evenodd" clip-rule="evenodd" d="M114.71 36.0406H115.752C116.251 36.0406 116.592 35.9661 116.772 35.8198C116.859 35.7488 116.928 35.6588 116.974 35.5569C117.02 35.4549 117.042 35.3436 117.039 35.2317C117.04 35.081 116.993 34.9338 116.905 34.8114C116.816 34.6843 116.689 34.5869 116.544 34.532C116.262 34.4574 115.971 34.4269 115.68 34.4416H114.701L114.71 36.0406ZM113.851 39.0365V33.7153H115.68C116.137 33.6947 116.596 33.745 117.039 33.8643C117.312 33.9583 117.549 34.1395 117.71 34.3805C117.871 34.6091 117.956 34.881 117.958 35.16C117.959 35.3487 117.924 35.5359 117.852 35.7104C117.781 35.8849 117.675 36.0434 117.541 36.1763C117.245 36.472 116.849 36.645 116.432 36.6606C116.599 36.7257 116.752 36.8214 116.884 36.9426C117.188 37.2668 117.455 37.6238 117.681 38.0068L118.33 39.0471H117.285L116.812 38.2117C116.44 37.5501 116.139 37.1359 115.911 36.9692C115.708 36.8353 115.465 36.7727 115.223 36.7909H114.718V39.0471L113.851 39.0365ZM116.023 32.1695C115.312 32.1742 114.614 32.3572 113.992 32.7016C113.34 33.051 112.804 33.5825 112.448 34.2314C112.085 34.8611 111.893 35.5745 111.889 36.3014C111.891 37.0215 112.08 37.7288 112.439 38.3527C112.794 38.9973 113.324 39.5279 113.968 39.8826C114.592 40.2433 115.301 40.4333 116.021 40.4333C116.742 40.4333 117.451 40.2433 118.075 39.8826C118.72 39.5294 119.25 38.9985 119.603 38.3527C119.96 37.7278 120.147 37.0209 120.148 36.3014C120.145 35.5749 119.953 34.8617 119.593 34.2314C119.237 33.5825 118.7 33.051 118.048 32.7016C117.428 32.3579 116.731 32.1751 116.023 32.1695ZM116.023 31.35C116.874 31.3533 117.71 31.5721 118.455 31.9858C119.24 32.4014 119.887 33.0377 120.316 33.8163C120.745 34.5733 120.973 35.4281 120.977 36.2987C120.975 37.1618 120.75 38.0096 120.323 38.7597C119.905 39.5361 119.27 40.1738 118.495 40.5956C117.745 41.0244 116.896 41.25 116.032 41.25C115.168 41.25 114.32 41.0244 113.57 40.5956C112.795 40.1724 112.16 39.5351 111.738 38.7597C111.305 38.008 111.077 37.1556 111.077 36.2881C111.077 35.4204 111.305 34.5681 111.738 33.8163C112.169 33.039 112.815 32.4032 113.599 31.9858C114.34 31.5734 115.174 31.3547 116.023 31.35Z" fill="white"/>
<path d="M110.458 64.1899H111.078V61.3108C111.078 60.2003 110.642 59.3964 109.19 59.3964C108.227 59.3964 107.57 59.9592 107.386 60.4504H107.369V59.5394H106.749V64.1899H107.369V61.6651C107.369 60.6081 107.928 59.9473 109.139 59.9473C109.93 59.9473 110.458 60.2688 110.458 61.1917V64.1899ZM100.383 61.8646C100.383 63.1626 101.178 64.3327 102.857 64.3327C104.535 64.3327 105.334 63.1626 105.334 61.8646C105.334 60.5665 104.535 59.3964 102.857 59.3964C101.178 59.3964 100.369 60.5665 100.369 61.8646H100.383ZM101.003 61.8646C101.003 60.7481 101.684 59.9502 102.857 59.9502C104.029 59.9502 104.711 60.7481 104.711 61.8646C104.711 62.9811 104.032 63.7789 102.857 63.7789C101.681 63.7789 100.989 62.984 100.989 61.8646H101.003ZM98.3609 58.7325H98.9837V57.75H98.3609V58.7325ZM98.3609 64.1899H98.9837V59.5394H98.3609V64.1899ZM95.2335 59.5394H94.2618V60.0396H95.2112V63.1091C95.2112 63.8593 95.4206 64.2613 96.3868 64.2613C96.6139 64.2599 96.8406 64.242 97.0653 64.2077V63.6539C96.8637 63.6942 96.6588 63.7122 96.4538 63.7075C95.9484 63.7075 95.8311 63.5199 95.8311 63.112V60.0396H97.0653V59.5394H95.8311V58.0716H95.2112L95.2335 59.5394ZM89.6125 60.9715C89.6543 60.2271 90.1263 59.9502 91.1063 59.9502C92.1312 59.9502 92.55 60.1914 92.55 60.8642C92.55 61.3197 92.3825 61.4001 91.0226 61.4805C90.0677 61.5341 88.8501 61.677 88.8501 62.9393C88.8501 63.9844 89.7995 64.3327 90.5451 64.3327C91.972 64.3327 92.3909 63.7075 92.5836 63.4038H92.5864C92.5864 63.7701 92.6282 64.2256 93.2565 64.2256C93.4324 64.2205 93.6073 64.1965 93.7787 64.1541V63.7075C93.6697 63.7075 93.5609 63.7254 93.4519 63.7254C93.2062 63.7254 93.1057 63.5914 93.1057 63.2073V60.7719C93.1057 59.8788 92.5696 59.3934 91.1092 59.3934C89.6487 59.3934 89.121 59.9889 89.0289 60.9684L89.6125 60.9715ZM92.55 62.3915C92.55 63.3503 91.5672 63.8326 90.7294 63.8326C90.0592 63.8326 89.4701 63.6182 89.4701 62.8948C89.4701 62.338 89.8917 62.1058 90.6121 62.0343C91.8547 61.9092 92.2736 61.8735 92.55 61.686V62.3915ZM85.6556 63.4307L83.93 59.5394H83.257L85.3066 64.1899H85.9767L88.0236 59.5394H87.3534L85.6556 63.4307ZM77.4349 61.8646C77.4349 63.1626 78.2307 64.3327 79.909 64.3327C81.5872 64.3327 82.3858 63.1626 82.3858 61.8646C82.3858 60.5665 81.5872 59.3964 79.909 59.3964C78.2307 59.3964 77.421 60.5665 77.421 61.8646H77.4349ZM78.0548 61.8646C78.0548 60.7481 78.7334 59.9502 79.909 59.9502C81.0845 59.9502 81.7631 60.7481 81.7631 61.8646C81.7631 62.9811 81.0845 63.7789 79.909 63.7789C78.7334 63.7789 78.0408 62.984 78.0408 61.8646H78.0548ZM75.3965 64.1899H76.0164V61.3108C76.0164 60.2003 75.5808 59.3964 74.1288 59.3964C73.1654 59.3964 72.5092 59.9592 72.3248 60.4504H72.3081V59.5394H71.6882V64.1899H72.3081V61.6651C72.3081 60.6081 72.8665 59.9473 74.0785 59.9473C74.8687 59.9473 75.3965 60.2688 75.3965 61.1917V64.1899ZM69.4989 64.1899H70.1189V61.3108C70.1189 60.2003 69.6833 59.3964 68.2312 59.3964C67.2679 59.3964 66.6117 59.9592 66.4273 60.4504H66.4106V59.5394H65.7796V64.1899H66.3994V61.6651C66.3994 60.6081 66.9579 59.9473 68.1698 59.9473C68.96 59.9473 69.4878 60.2688 69.4878 61.1917L69.4989 64.1899ZM63.6182 58.7325H64.2409V57.75H63.6182V58.7325ZM63.6182 64.1899H64.2409V59.5394H63.6182V64.1899ZM57.5867 64.1899H58.2094V61.808C58.2094 60.4832 59.0219 60.0455 59.6949 60.0455C59.8822 60.0463 60.069 60.0642 60.2534 60.0991V59.4321C60.132 59.407 60.0084 59.395 59.8848 59.3964C59.5205 59.3755 59.1598 59.4819 58.8573 59.6996C58.5549 59.9172 58.3274 60.2341 58.2094 60.6022H58.1926V59.5394H57.5699L57.5867 64.1899ZM55.4002 64.1899H56.0061V59.5394H55.3863V62.0611C55.3863 63.118 54.8278 63.7789 53.6159 63.7789C52.8257 63.7789 52.2979 63.4574 52.2979 62.5345V59.5394H51.678V62.4184C51.678 63.5289 52.1137 64.3327 53.5657 64.3327C54.529 64.3327 55.1853 63.7701 55.3695 63.2787H55.3863L55.4002 64.1899ZM45.3253 61.8646C45.3253 63.1626 46.1212 64.3327 47.7994 64.3327C49.4776 64.3327 50.2735 63.1626 50.2735 61.8646C50.2735 60.5665 49.4776 59.3964 47.7994 59.3964C46.1212 59.3964 45.3113 60.5665 45.3113 61.8646H45.3253ZM45.9453 61.8646C45.9453 60.7481 46.6238 59.9502 47.7994 59.9502C48.975 59.9502 49.6535 60.7481 49.6535 61.8646C49.6535 62.9811 48.975 63.7789 47.7994 63.7789C46.6238 63.7789 45.9313 62.984 45.9313 61.8646H45.9453ZM42.1196 63.4128L40.341 59.5423H39.6708L41.793 64.2285L41.5137 64.8746C41.4568 65.0641 41.3383 65.2256 41.1797 65.3305C41.021 65.4352 40.8325 65.4762 40.6481 65.4463C40.4806 65.4463 40.3382 65.4462 40.2041 65.4284V65.9821C40.3884 66 40.6062 66 40.8017 66C41.4886 66 41.7566 65.7945 42.0751 65.0622L44.4429 59.5423H43.77L42.1196 63.4128ZM35.6777 64.1899H36.3004V57.75H35.6777V60.4742H35.6609C35.4834 60.1404 35.224 59.8644 34.9108 59.6756C34.5975 59.4868 34.2419 59.3923 33.8822 59.4024C32.2543 59.4024 31.5087 60.5724 31.5087 61.8706C31.5087 63.0078 32.095 64.3386 33.8822 64.3386C34.2436 64.359 34.6029 64.269 34.9181 64.0791C35.2331 63.8893 35.4909 63.6074 35.6609 63.2668H35.6777V64.1899ZM35.7111 61.8646C35.7111 63.0823 34.9154 63.7789 33.8822 63.7789C32.6144 63.7789 32.1285 62.7965 32.1285 61.8646C32.119 61.6074 32.1583 61.3509 32.2441 61.1103C32.3298 60.8697 32.4602 60.6501 32.6274 60.4645C32.7947 60.279 32.9954 60.1314 33.2175 60.0306C33.4396 59.9297 33.6785 59.8778 33.9198 59.8778C34.1612 59.8778 34.4001 59.9297 34.6223 60.0306C34.8443 60.1314 35.045 60.279 35.2123 60.4645C35.3795 60.6501 35.51 60.8697 35.5957 61.1103C35.6814 61.3509 35.7207 61.6074 35.7111 61.8646ZM29.4703 64.1899H30.0929V61.3108C30.0929 60.2003 29.6545 59.3964 28.2025 59.3964C27.2391 59.3964 26.5857 59.9592 26.3985 60.4504H26.3819V59.5394H25.748V64.1899H26.3679V61.6651C26.3679 60.6081 26.9263 59.9473 28.1382 59.9473C28.9285 59.9473 29.4563 60.2688 29.4563 61.1917L29.4703 64.1899ZM20.5429 60.9715C20.5848 60.2271 21.054 59.9502 22.0369 59.9502C23.0198 59.9502 23.4778 60.1914 23.4778 60.8642C23.4778 61.3197 23.3102 61.4001 21.9532 61.4805C20.9953 61.5341 19.7779 61.677 19.7779 62.9393C19.7779 63.9844 20.7273 64.3327 21.4728 64.3327C22.8998 64.3327 23.3186 63.7075 23.5113 63.4038H23.528C23.528 63.7701 23.57 64.2256 24.201 64.2256C24.3759 64.2203 24.5499 64.1964 24.7204 64.1541V63.7075C24.6115 63.7075 24.5026 63.7254 24.3937 63.7254C24.1508 63.7254 24.0502 63.5914 24.0502 63.2073V60.7719C24.0502 59.8788 23.5113 59.3934 22.0537 59.3934C20.5961 59.3934 20.0627 59.9889 19.9706 60.9684L20.5429 60.9715ZM23.4778 62.3915C23.4778 63.3503 22.4976 63.8326 21.6572 63.8326C20.987 63.8326 20.4006 63.6182 20.4006 62.8948C20.4006 62.338 20.8194 62.1058 21.5399 62.0343C22.7825 61.9092 23.2153 61.8735 23.4778 61.686V62.3915ZM14.3997 61.8646C14.3997 60.6469 15.1955 59.9502 16.2287 59.9502C17.4964 59.9502 17.9824 60.9356 17.9824 61.8646C17.9961 62.1161 17.9605 62.3677 17.8777 62.6036C17.7951 62.8396 17.6671 63.0545 17.5021 63.2347C17.337 63.4149 17.1385 63.5563 16.9192 63.6501C16.7 63.7438 16.4648 63.7877 16.2287 63.7789C15.9871 63.797 15.7445 63.7601 15.5172 63.6709C15.2899 63.5815 15.083 63.4417 14.9101 63.2608C14.7372 63.0798 14.6023 62.8618 14.5143 62.6211C14.4264 62.3804 14.3873 62.1226 14.3997 61.8646ZM13.8105 65.997H14.4333V63.2609H14.45C14.6285 63.5938 14.8879 63.8692 15.2011 64.0578C15.5142 64.2465 15.8692 64.3415 16.2287 64.3327C17.8567 64.3327 18.6022 63.1626 18.6022 61.8646C18.6022 60.7303 18.0159 59.3964 16.2287 59.3964C15.0196 59.3964 14.6175 60.0753 14.45 60.4682H14.4333V59.5394H13.8022L13.8105 65.997ZM7.88232 64.1899H8.6949L10.2977 62.2605L11.9173 64.1928H12.755L10.7054 61.7783L12.5931 59.5423H11.7666L10.2977 61.3138L8.81498 59.5394H8.01636L9.87888 61.7752L7.88232 64.1899ZM6.28787 62.7012C6.07007 63.4068 5.60095 63.773 4.5594 63.773C3.44244 63.773 2.80578 62.987 2.80578 62.0194H7.0111C7.0111 59.9085 5.67634 59.3905 4.55101 59.3905C2.92306 59.3905 2.17749 60.5605 2.17749 61.8587C2.17749 62.9959 2.7639 64.3267 4.55101 64.3267C5.99468 64.3267 6.65088 63.5229 6.9022 62.7012H6.28787ZM2.80578 61.5103C2.94819 60.373 3.80545 59.9354 4.60128 59.9354C5.39711 59.9354 6.22086 60.364 6.39678 61.5103H2.80578Z" fill="white"/>
<path d="M2.17749 56.1H111.078H2.17749Z" fill="white"/>
<path d="M2.17749 56.1H111.078" stroke="white" stroke-width="0.75" stroke-miterlimit="22.93"/>
<defs>
<linearGradient id="paint0_linear_56_3" x1="55.8024" y1="1.65002" x2="55.8024" y2="33" gradientUnits="userSpaceOnUse">
<stop stop-color="#F36C21"/>
<stop offset="1" stop-color="#FDEADF"/>
</linearGradient>
</defs>
</svg>
