<svg width="92" height="106" viewBox="0 0 92 106" fill="none" xmlns="http://www.w3.org/2000/svg">
<path d="M46 53C52.9714 53 59.6573 50.208 64.5868 45.2383C69.5163 40.2686 72.2857 33.5282 72.2857 26.5C72.2857 19.4718 69.5163 12.7314 64.5868 7.76167C59.6573 2.79196 52.9714 0 46 0C39.0286 0 32.3427 2.79196 27.4132 7.76167C22.4837 12.7314 19.7143 19.4718 19.7143 26.5C19.7143 33.5282 22.4837 40.2686 27.4132 45.2383C32.3427 50.208 39.0286 53 46 53ZM36.6152 62.9375C16.3875 62.9375 0 79.4586 0 99.8512C0 103.246 2.73125 106 6.09911 106H85.9009C89.2688 106 92 103.246 92 99.8512C92 79.4586 75.6125 62.9375 55.3848 62.9375H36.6152Z" fill="#002140"/>
</svg>
